<svg xmlns="http://www.w3.org/2000/svg" xmlns:xlink="http://www.w3.org/1999/xlink" width="32" height="32" viewBox="0 0 32 32"><defs><path id="rqgya" d="M685 4337c8.837 0 16 7.164 16 16 0 8.837-7.163 16-16 16s-16-7.163-16-16c0-8.836 7.163-16 16-16zm-10 21.771h5.964c2.223 0 4.344-1.016 4.344-3.392 0-1.457-.758-2.555-2.259-2.965 1.07-.491 1.673-1.294 1.673-2.441 0-2.179-1.585-2.973-3.93-2.973H675zm2.475-9.798h2.766c.964 0 1.861.231 1.861 1.345 0 .982-.707 1.391-1.655 1.391h-2.972zm0 4.686h3.179c1.155 0 1.87.475 1.87 1.67 0 1.214-.853 1.54-1.922 1.54h-3.127zm17.353 1.171c.172-2.604-1.293-4.758-4.327-4.758-2.705 0-4.576 1.933-4.576 4.473 0 2.62 1.767 4.455 4.576 4.455 2.018 0 3.587-1.048 4.275-3.047h-2.154c-.155.525-1.052 1.295-2.035 1.295-1.361 0-2.12-.943-2.188-2.418zm-6.429-1.524c.034-.654.482-1.48 2.033-1.48 1.19 0 1.725.302 1.949 1.48zm4.756-5.515h-4.931v1.573h4.931z"/></defs><g><g transform="translate(-669 -4337)"><use fill="#0188f5" xlink:href="#rqgya"/><use fill="#ebebeb" xlink:href="#rqgya"/></g></g></svg>