<svg xmlns="http://www.w3.org/2000/svg" xmlns:xlink="http://www.w3.org/1999/xlink" width="32" height="32" viewBox="0 0 32 32"><defs><path id="ii5ha" d="M485 4337c8.837 0 16 7.164 16 16 0 8.837-7.163 16-16 16s-16-7.163-16-16c0-8.836 7.163-16 16-16zm9.897 10.205a6.891 6.891 0 0 1-2.121.636c.762-.5 1.348-1.292 1.623-2.235a7.034 7.034 0 0 1-2.345.98c-.674-.785-1.633-1.276-2.696-1.276-2.04 0-3.693 1.81-3.693 4.04 0 .317.033.625.096.92-3.07-.168-5.791-1.776-7.613-4.22-.317.597-.5 1.291-.5 2.03 0 1.402.652 2.639 1.643 3.363a3.442 3.442 0 0 1-1.672-.505v.05c0 1.958 1.272 3.59 2.962 3.962a3.414 3.414 0 0 1-1.668.069c.47 1.605 1.834 2.773 3.45 2.805-1.264 1.084-2.856 1.73-4.587 1.73-.298 0-.592-.02-.88-.057 1.634 1.146 3.575 1.815 5.66 1.815 6.794 0 10.509-6.155 10.509-11.494 0-.175-.004-.349-.011-.522a7.93 7.93 0 0 0 1.843-2.091"/></defs><g><g transform="translate(-469 -4337)"><use fill="#4e9edc" xlink:href="#ii5ha"/><use fill="#ebebeb" xlink:href="#ii5ha"/></g></g></svg>